<?xml version="1.0" standalone="no"?>
<!DOCTYPE svg PUBLIC "-//W3C//DTD SVG 20010904//EN"
 "http://www.w3.org/TR/2001/REC-SVG-20010904/DTD/svg10.dtd">
<svg version="1.0" xmlns="http://www.w3.org/2000/svg"
 width="1302.000000pt" height="1302.000000pt" viewBox="0 0 1302.000000 1302.000000"
 preserveAspectRatio="xMidYMid meet">
<metadata>
Created by potrace 1.14, written by Peter Selinger 2001-2017
</metadata>
<g transform="translate(0.000000,1302.000000) scale(0.100000,-0.100000)"
fill="#000000" stroke="none">
<path d="M5230 11370 l-25 -7 28 -8 c15 -4 27 -11 27 -16 0 -5 4 -9 10 -9 5 0
38 -17 72 -38 35 -21 74 -43 88 -50 14 -7 34 -18 45 -25 11 -7 38 -23 60 -35
22 -13 63 -36 90 -53 28 -16 58 -33 68 -36 9 -3 17 -10 17 -15 0 -5 5 -6 10
-3 6 3 10 1 10 -6 0 -7 3 -10 6 -6 3 3 30 -10 59 -29 30 -19 58 -34 64 -34 5
0 16 -6 23 -13 7 -7 49 -33 93 -57 44 -24 102 -56 128 -72 26 -15 52 -28 57
-28 6 0 10 -4 10 -9 0 -5 8 -11 18 -14 9 -4 37 -18 62 -33 25 -15 74 -43 109
-61 35 -18 60 -33 55 -33 -5 0 16 -13 46 -28 30 -16 78 -41 105 -57 28 -15 59
-33 70 -39 11 -6 22 -14 25 -17 3 -3 41 -25 85 -49 44 -23 83 -47 86 -52 3 -5
8 -8 10 -7 2 2 29 -13 59 -33 179 -117 288 -175 371 -199 97 -28 143 -32 299
-29 532 9 1057 3 1150 -14 14 -3 45 -7 70 -10 25 -3 56 -9 70 -12 14 -3 36 -7
50 -9 25 -4 61 -12 70 -15 3 -1 10 -3 15 -5 6 -1 12 -3 15 -4 3 -2 12 -4 20
-6 8 -1 35 -9 60 -16 25 -7 48 -13 53 -15 4 -1 9 -3 12 -4 3 -1 8 -3 13 -5 4
-1 20 -7 35 -13 16 -7 33 -12 38 -12 5 0 17 -4 27 -9 9 -6 61 -31 116 -56 231
-109 453 -286 596 -475 14 -18 31 -39 38 -46 6 -7 12 -16 12 -19 0 -4 14 -24
30 -45 16 -21 30 -42 30 -48 0 -6 3 -12 8 -14 9 -4 41 -57 49 -80 3 -10 9 -18
14 -18 5 0 9 -7 9 -15 0 -17 20 -56 33 -66 5 -3 8 -8 7 -10 -1 -4 2 -14 41
-116 15 -40 25 -73 22 -73 -3 0 -1 -6 5 -12 10 -13 37 -124 35 -145 0 -7 2
-13 6 -13 4 0 8 -6 8 -12 1 -7 4 -31 7 -53 12 -84 18 -142 21 -186 1 -25 6
-52 10 -59 6 -9 4 -11 -4 -5 -10 5 -11 3 -4 -11 11 -23 11 -194 0 -211 -4 -6
-3 -14 3 -18 6 -4 7 -11 4 -17 -4 -6 -8 -34 -10 -62 -3 -65 -11 -138 -22 -198
-5 -26 -7 -50 -4 -53 3 -3 0 -5 -7 -5 -7 0 -10 -4 -7 -8 3 -5 0 -26 -6 -48 -7
-21 -12 -41 -13 -44 0 -3 -4 -11 -8 -17 -5 -7 -6 -13 -3 -13 6 0 -43 -131 -54
-145 -5 -5 -9 -13 -10 -17 -2 -17 -27 -66 -53 -105 -15 -24 -27 -46 -27 -50 0
-5 -10 -19 -22 -33 -13 -14 -35 -41 -49 -60 -67 -89 -224 -225 -319 -276 -19
-10 -37 -22 -40 -25 -22 -26 -327 -148 -413 -165 -10 -2 -27 -6 -37 -9 -22 -7
-39 -11 -140 -31 -41 -8 -91 -17 -110 -20 -19 -2 -48 -6 -65 -9 -16 -3 -50 -7
-75 -9 -25 -3 -70 -8 -100 -12 -81 -9 -151 -12 -405 -19 -364 -10 -395 -10
-395 -2 0 5 -6 5 -12 0 -7 -4 -636 -8 -1398 -8 l-1385 0 0 -1147 c0 -630 -4
-1150 -8 -1154 -13 -13 -558 -5 -772 11 -38 3 -96 7 -128 9 -31 3 -76 7 -100
11 -23 3 -60 7 -82 10 -22 2 -53 6 -70 9 -31 6 -63 11 -129 22 -21 3 -48 8
-60 11 -11 2 -30 6 -41 8 -55 10 -182 48 -250 75 -105 42 -245 111 -245 122 0
5 -6 8 -13 8 -46 0 -298 234 -372 345 -85 128 -152 272 -180 391 -27 112 -38
165 -41 194 -1 19 -5 53 -9 75 -3 22 -7 82 -9 132 -3 51 -7 97 -11 103 -3 5
-3 10 2 10 4 0 8 51 9 113 0 101 3 141 19 257 6 40 13 75 15 75 1 0 3 10 6 23
2 12 6 32 8 45 3 12 5 22 6 22 1 0 3 7 5 15 18 74 27 102 64 193 17 44 48 109
68 145 20 37 45 84 56 105 10 20 23 37 28 37 5 0 9 6 9 13 0 7 7 22 15 32 8
11 29 38 45 60 17 22 45 58 63 80 38 48 213 225 222 225 3 0 16 9 28 21 59 56
338 224 351 212 3 -4 6 0 6 7 0 7 3 10 7 7 3 -4 11 -3 17 2 31 26 294 106 411
126 17 3 41 7 55 10 59 12 203 25 310 29 36 1 71 5 77 9 6 4 14 3 18 -3 4 -6
12 -7 18 -3 6 4 252 8 546 9 294 1 550 5 570 9 34 7 134 55 236 116 28 16 61
35 75 42 14 6 27 14 30 17 3 3 19 12 35 20 17 8 36 21 43 28 8 7 17 10 21 8 4
-3 20 6 36 20 15 13 32 24 36 24 4 0 47 23 96 51 48 28 98 55 111 60 12 5 22
13 22 19 0 6 4 9 9 6 5 -3 14 1 21 9 7 8 16 15 21 15 5 0 52 25 106 57 146 84
164 94 208 117 22 12 42 23 45 26 3 3 19 12 35 20 17 8 32 17 35 20 5 5 36 23
100 57 19 10 39 23 46 28 6 6 30 19 53 29 22 11 41 23 41 28 0 4 8 8 17 8 9 0
24 6 32 14 9 7 41 27 71 43 30 17 83 47 117 67 34 20 66 36 71 36 6 0 12 4 14
9 2 5 39 28 83 51 44 24 91 51 105 60 14 9 41 24 61 33 38 18 66 44 56 53 -6
6 -3917 6 -4092 -1 -234 -8 -364 -16 -505 -31 -25 -2 -70 -6 -101 -9 -31 -3
-65 -7 -76 -9 -11 -3 -44 -7 -74 -11 -30 -3 -78 -11 -107 -16 -30 -6 -56 -8
-59 -5 -4 3 -11 2 -17 -3 -6 -5 -29 -12 -51 -15 -22 -4 -47 -8 -55 -11 -8 -2
-32 -6 -52 -9 -21 -2 -41 -7 -46 -10 -5 -3 -24 -8 -43 -11 -19 -3 -52 -11 -74
-17 -22 -6 -47 -12 -55 -13 -8 -1 -22 -5 -30 -8 -8 -2 -51 -15 -95 -27 -44
-12 -86 -27 -92 -33 -7 -5 -13 -7 -13 -4 0 7 -172 -51 -243 -82 -26 -11 -49
-20 -52 -21 -3 0 -21 -7 -41 -15 -20 -8 -39 -15 -41 -15 -3 0 -71 -32 -151
-72 -151 -74 -311 -165 -395 -224 -26 -19 -50 -34 -53 -34 -3 0 -11 -6 -19
-12 -7 -7 -25 -22 -41 -33 -35 -25 -119 -91 -159 -125 -58 -48 -272 -265 -311
-315 -21 -27 -41 -52 -45 -55 -3 -3 -18 -23 -35 -45 -16 -22 -35 -46 -41 -53
-7 -7 -13 -17 -13 -22 0 -5 -6 -15 -13 -22 -15 -15 -77 -107 -77 -113 0 -3
-18 -34 -41 -71 -54 -88 -179 -340 -179 -361 0 -3 -6 -19 -14 -36 -13 -28 -63
-173 -71 -202 -1 -5 -5 -17 -8 -25 -3 -8 -9 -28 -13 -45 -4 -16 -8 -32 -9 -35
-6 -22 -19 -78 -21 -90 -1 -8 -10 -51 -19 -95 -21 -106 -24 -124 -43 -300 -4
-38 -7 -169 -7 -290 0 -229 7 -337 31 -495 4 -25 7 -62 8 -82 1 -21 4 -38 8
-38 4 0 7 -8 6 -17 0 -10 3 -30 6 -45 3 -16 8 -39 11 -53 3 -14 7 -37 10 -52
4 -16 13 -53 21 -83 8 -30 17 -66 20 -79 3 -14 7 -28 10 -33 3 -5 8 -20 10
-35 3 -15 11 -34 17 -42 7 -8 11 -17 11 -20 -2 -7 6 -28 38 -111 56 -144 218
-420 300 -512 15 -17 28 -35 28 -38 0 -10 237 -247 289 -290 23 -19 48 -39 54
-45 53 -43 97 -75 106 -75 5 0 11 -3 13 -8 5 -13 91 -72 105 -72 7 0 13 -4 13
-9 0 -5 15 -16 33 -25 46 -24 71 -40 79 -51 4 -5 8 -7 8 -2 0 4 17 -3 37 -16
49 -31 232 -120 303 -147 30 -12 69 -28 85 -35 48 -22 265 -91 325 -104 30 -7
62 -15 70 -18 8 -3 24 -8 35 -9 11 -2 40 -8 65 -14 25 -5 59 -12 75 -14 17 -3
41 -7 55 -11 14 -3 45 -8 70 -10 67 -8 110 -13 155 -20 44 -6 107 -11 300 -21
72 -4 633 -8 1247 -8 l1117 0 1 -266 c1 -318 1 -283 0 -350 -1 -61 -1 -125 -1
-185 0 -22 0 -58 0 -80 0 -22 0 -58 0 -80 0 -22 0 -58 0 -80 0 -22 0 -58 0
-80 0 -22 0 -58 0 -80 0 -22 0 -58 0 -80 0 -22 0 -58 0 -80 0 -52 0 -111 1
-156 1 -19 0 -39 -1 -45 -1 -5 -1 -26 0 -46 l1 -38 1335 0 1334 0 0 1958 c1
1076 1 1966 1 1977 0 20 4 20 1078 21 970 1 1431 6 1502 18 14 2 54 7 90 11
104 9 261 35 370 60 36 8 76 17 90 19 14 3 36 9 50 14 14 5 28 10 33 11 36 5
208 59 272 86 17 7 46 18 65 25 19 7 55 22 80 34 25 11 47 21 50 21 16 3 166
80 168 87 2 4 9 8 15 8 16 0 231 129 235 141 2 5 8 9 14 9 12 0 158 110 236
177 73 63 205 197 251 253 20 25 48 58 63 75 16 16 28 35 28 42 0 6 4 13 8 15
8 3 88 116 108 153 21 39 39 70 44 75 13 13 50 90 44 90 -4 0 0 8 8 18 8 9 32
58 52 107 21 50 42 99 47 110 6 12 11 27 12 35 2 8 5 20 8 25 6 9 46 138 55
175 2 8 8 33 14 55 6 22 12 51 14 65 2 14 6 34 9 45 3 11 9 38 12 60 3 23 8
52 10 65 6 26 10 61 24 195 9 83 7 551 -3 595 -3 14 -7 54 -10 90 -3 36 -7 76
-10 89 -3 12 -8 42 -11 65 -3 22 -8 57 -11 76 -3 19 -8 46 -9 60 -2 14 -4 25
-5 25 -2 0 -4 9 -6 20 -6 40 -51 220 -61 245 -3 8 -7 20 -9 27 -4 22 -25 88
-34 108 -5 11 -21 52 -36 90 -14 39 -41 103 -60 143 -18 40 -34 76 -35 80 0 4
-4 12 -9 17 -4 6 -22 36 -39 67 -42 79 -54 100 -66 114 -5 7 -23 35 -40 63
-16 28 -33 51 -37 51 -5 0 -8 5 -8 11 0 9 -43 69 -75 105 -5 6 -21 25 -35 43
-44 59 -157 178 -251 266 -70 66 -252 215 -263 215 -3 0 -15 8 -25 18 -31 27
-50 42 -55 42 -2 0 -37 22 -78 48 -40 27 -80 52 -88 56 -8 4 -42 22 -75 41
-106 61 -403 205 -423 205 -4 0 -20 7 -36 15 -24 13 -369 133 -401 140 -5 1
-28 5 -50 10 -22 4 -47 11 -56 16 -9 4 -31 11 -50 14 -19 3 -41 8 -50 11 -10
2 -30 7 -45 9 -16 2 -47 9 -69 15 -22 6 -60 13 -84 15 -24 3 -47 7 -50 10 -4
2 -30 7 -57 10 -27 4 -60 9 -74 11 -28 6 -45 8 -145 19 -123 13 -260 25 -365
32 -130 7 -4354 11 -4380 3z"/>
</g>
</svg>
